 <svg  version="1.0" xmlns="http://www.w3.org/2000/svg"  width="1350.000000pt" height="1431.000000pt" viewBox="0 0 1350.000000 1431.000000"  preserveAspectRatio="xMidYMid meet">  <g transform="translate(0.000000,1431.000000) scale(0.100000,-0.100000)" fill="#ff0000" stroke="none"> <path d="M0 14270 c0 -22 2 -40 5 -40 3 0 27 12 55 28 66 36 65 52 -5 52 l-55 0 0 -40z"/> <path d="M6578 11430 c-45 -13 -95 -48 -135 -94 -44 -50 -46 -53 -108 -201 -26 -60 -67 -151 -91 -201 -23 -50 -63 -144 -88 -208 -25 -64 -57 -134 -71 -156 -14 -22 -25 -44 -25 -50 0 -5 -13 -38 -29 -72 -39 -86 -148 -347 -156 -378 -4 -14 -11 -29 -15 -35 -4 -5 -17 -37 -28 -70 -11 -33 -27 -73 -36 -90 -9 -16 -16 -38 -16 -47 0 -9 -4 -20 -10 -23 -5 -3 -10 -15 -10 -26 0 -10 -9 -36 -20 -56 -11 -21 -20 -44 -20 -52 0 -20 -19 -79 -40 -121 -9 -19 -25 -62 -35 -95 -9 -33 -34 -112 -55 -175 -21 -63 -61 -189 -90 -280 -28 -91 -60 -192 -71 -225 -11 -33 -32 -98 -45 -144 -14 -46 -36 -111 -49 -145 -13 -33 -39 -113 -59 -176 -19 -63 -59 -194 -90 -290 -30 -96 -57 -184 -59 -195 -3 -11 -15 -45 -27 -75 -12 -30 -26 -73 -31 -95 -5 -22 -16 -54 -24 -72 -8 -17 -15 -40 -15 -51 0 -24 -37 -65 -80 -87 -62 -32 -310 -255 -370 -334 -142 -182 -270 -395 -324 -536 -15 -38 -38 -98 -51 -131 -13 -34 -33 -104 -45 -155 -11 -52 -27 -123 -35 -159 -18 -79 -38 -213 -62 -408 -3 -30 0 -100 6 -155 12 -100 94 -465 112 -498 5 -10 16 -41 24 -71 46 -165 70 -218 137 -299 21 -25 38 -49 38 -53 0 -16 99 -142 152 -192 46 -45 128 -110 241 -192 18 -13 41 -31 52 -41 11 -10 27 -21 35 -24 15 -7 108 -73 191 -136 24 -18 71 -47 104 -63 33 -16 81 -44 106 -61 26 -18 73 -48 105 -67 31 -19 73 -45 92 -58 19 -13 58 -35 86 -50 28 -14 79 -43 113 -63 33 -21 82 -47 106 -58 25 -12 49 -25 52 -31 3 -5 13 -10 21 -10 8 0 45 -14 82 -31 37 -17 81 -37 97 -45 17 -8 44 -18 60 -23 17 -5 73 -26 125 -46 52 -20 111 -40 130 -45 19 -5 58 -16 85 -24 112 -34 167 -48 305 -76 80 -15 152 -31 160 -34 8 -3 49 -10 90 -15 66 -9 205 -33 355 -61 302 -58 947 -60 1215 -5 36 7 103 21 150 30 231 46 427 113 635 217 298 149 375 205 614 451 157 161 256 286 308 387 18 36 38 72 43 80 5 8 15 31 23 50 8 19 22 53 31 75 61 150 105 591 77 775 -7 41 -16 107 -21 147 -16 128 -39 218 -81 319 -50 119 -56 159 -36 221 15 45 37 134 74 293 8 36 19 81 24 100 5 19 14 62 20 95 6 33 17 89 23 125 7 36 15 71 19 77 4 6 11 37 16 70 5 32 26 135 46 228 20 94 45 223 55 288 10 65 26 150 34 190 8 40 24 124 36 187 11 63 25 138 30 165 5 28 14 91 20 140 6 50 16 135 24 190 8 55 19 147 26 205 6 58 19 166 30 240 11 74 26 196 35 270 16 138 18 151 53 350 35 196 63 381 72 470 26 261 32 332 41 505 13 250 6 331 -32 383 -33 45 -90 76 -124 68 -25 -6 -275 -250 -340 -331 -36 -45 -175 -200 -297 -330 -26 -27 -60 -68 -76 -90 -16 -22 -50 -62 -75 -90 -26 -27 -47 -53 -47 -57 0 -4 -16 -24 -36 -45 -20 -21 -55 -63 -78 -93 -22 -30 -66 -85 -96 -121 -57 -69 -159 -205 -220 -294 -19 -28 -41 -58 -48 -66 -40 -45 -227 -312 -251 -357 -7 -15 -23 -38 -36 -52 -12 -14 -44 -59 -70 -100 -27 -41 -53 -78 -57 -81 -5 -3 -28 -37 -53 -75 -24 -38 -53 -81 -64 -95 -22 -29 -146 -215 -177 -266 -10 -18 -58 -90 -105 -160 -47 -70 -92 -138 -100 -149 -8 -12 -58 -86 -112 -164 -54 -78 -112 -167 -129 -198 -44 -82 -88 -191 -88 -220 0 -14 -10 -52 -22 -86 -37 -107 -77 -124 -98 -44 -7 24 -19 59 -27 78 -9 21 -17 79 -20 145 -4 73 -10 115 -19 126 -16 18 -92 52 -149 67 -22 5 -80 24 -130 41 -82 27 -200 59 -315 83 -25 5 -68 16 -96 24 -63 18 -80 12 -87 -29 -15 -90 -40 -208 -54 -257 -36 -124 -46 -156 -55 -167 -15 -18 -60 -26 -69 -11 -13 20 -10 102 5 166 8 31 19 82 25 112 6 30 18 90 28 133 10 47 13 81 7 86 -5 5 -28 11 -51 15 -52 8 -51 8 -87 -139 -67 -274 -65 -268 -99 -263 -13 2 -24 14 -28 31 -11 41 15 216 57 384 43 172 42 129 21 733 -8 250 -13 466 -11 480 3 14 0 122 -6 240 -22 453 -39 750 -49 880 -36 445 -43 520 -51 565 -5 28 -12 82 -15 120 -3 39 -12 117 -20 175 -7 58 -19 146 -25 195 -11 99 -35 246 -46 285 -9 34 -62 89 -101 106 -36 16 -46 16 -85 4z m-160 -2207 c35 -30 97 -165 135 -293 47 -159 70 -253 132 -545 14 -66 37 -167 51 -225 14 -58 24 -123 22 -145 -3 -35 -7 -40 -37 -49 -57 -16 -63 -1 -126 294 -23 105 -46 210 -61 280 -8 36 -20 88 -25 115 -26 120 -54 221 -105 371 -53 158 -61 194 -47 207 12 12 40 7 61 -10z m3640 -255 c26 -26 11 -54 -63 -123 -78 -72 -288 -284 -337 -339 -15 -17 -55 -60 -88 -96 -107 -113 -102 -124 25 -59 269 139 316 160 353 157 33 -3 37 -6 40 -34 3 -28 -3 -36 -43 -63 -25 -17 -48 -31 -51 -31 -3 0 -123 -59 -266 -130 -241 -120 -338 -178 -338 -201 0 -7 -13 -28 -82 -131 -29 -44 -123 -229 -143 -283 -27 -71 -55 -115 -72 -115 -13 0 -15 10 -9 58 8 68 52 221 71 242 7 8 16 26 20 40 4 14 20 48 35 76 26 46 27 53 13 66 -13 14 -13 19 1 46 8 16 30 39 49 51 32 19 115 116 153 176 10 17 32 46 49 66 16 20 54 67 83 105 108 139 337 379 460 482 65 54 113 67 140 40z m-4183 -108 c29 -22 68 -58 87 -81 18 -22 54 -66 81 -96 49 -59 60 -100 32 -123 -26 -21 -71 -1 -124 55 -28 30 -51 57 -51 62 0 4 -20 29 -43 56 -73 80 -87 100 -87 128 0 53 32 53 105 -1z m6 -536 c22 -19 25 -54 7 -72 -19 -19 -72 -14 -109 11 -38 25 -47 50 -28 74 17 20 103 11 130 -13z m-43 -1728 c34 -8 79 -25 100 -38 130 -86 181 -127 213 -174 30 -44 118 -231 137 -294 54 -172 73 -393 53 -606 -15 -160 -56 -393 -76 -431 -8 -15 -26 -59 -41 -98 -34 -91 -77 -135 -162 -168 -96 -36 -144 -46 -268 -53 -114 -7 -271 12 -337 41 -146 63 -308 161 -396 241 -49 44 -181 205 -209 256 -56 99 -97 192 -118 263 -9 33 -23 78 -30 100 -38 118 -39 138 -10 200 14 31 26 61 26 66 0 18 103 182 159 251 122 153 236 250 426 362 45 27 198 78 257 85 98 13 207 12 276 -3z m511 -213 c11 -10 51 -76 87 -148 36 -71 79 -154 96 -182 33 -59 34 -99 3 -119 -18 -12 -26 -11 -54 4 -25 13 -45 39 -82 109 -27 51 -49 98 -49 104 0 7 -13 33 -28 58 -15 25 -36 68 -46 94 -17 44 -17 49 -2 72 19 29 46 32 75 8z m2480 -438 c39 -13 85 -34 102 -47 65 -49 206 -184 254 -244 63 -79 145 -191 145 -199 0 -3 17 -36 39 -74 77 -136 104 -267 91 -446 -9 -129 -29 -226 -71 -349 -52 -153 -110 -244 -202 -314 -71 -54 -94 -64 -259 -119 l-143 -48 -180 0 -180 0 -120 43 c-66 24 -142 54 -170 67 -27 14 -61 29 -75 35 -36 15 -219 125 -310 186 -40 27 -131 105 -172 147 -15 16 -42 58 -60 95 -30 61 -33 74 -32 157 1 77 6 101 33 167 18 42 39 82 46 88 8 7 33 46 56 88 23 43 56 95 73 116 17 22 54 72 81 112 103 148 202 253 358 379 141 113 222 155 347 178 14 2 82 5 151 6 109 1 135 -2 198 -24z m-762 -110 c3 -34 -17 -60 -92 -119 -28 -22 -59 -49 -70 -61 -19 -19 -87 -77 -141 -119 -23 -17 -26 -17 -49 -2 -53 35 -19 94 118 207 162 133 157 130 196 127 32 -3 36 -6 38 -33z m-3451 -333 c5 -4 21 -25 34 -47 13 -22 38 -56 56 -75 46 -50 59 -88 38 -111 -28 -31 -61 -23 -114 27 -51 47 -90 114 -90 152 0 39 48 74 76 54z m2113 -988 c119 -37 226 -71 238 -77 26 -12 37 -39 28 -64 -14 -36 -123 -125 -162 -133 -58 -13 -121 -38 -153 -62 -25 -18 -33 -20 -55 -10 -14 7 -30 24 -36 39 -6 15 -35 53 -65 84 -30 32 -54 65 -54 74 0 8 -11 38 -25 65 -14 27 -25 62 -25 77 0 34 36 73 68 73 14 0 122 -30 241 -66z m2471 -413 c28 -53 -35 -99 -194 -140 -105 -27 -149 -27 -176 1 -42 46 -13 72 112 103 51 13 116 30 143 38 71 21 102 21 115 -2z"/> <path d="M5870 6018 c-36 -19 -46 -31 -57 -68 -27 -88 -76 -452 -89 -657 l-7 -112 34 -30 c27 -25 42 -31 80 -31 79 0 103 50 125 270 8 80 19 177 24 215 37 282 40 325 26 360 -12 29 -65 75 -86 75 -3 0 -26 -10 -50 -22z"/> <path d="M8201 5526 c-31 -31 -35 -45 -66 -207 -19 -96 -46 -264 -60 -374 -15 -110 -31 -226 -35 -258 -16 -115 30 -217 98 -217 36 0 79 36 93 78 6 20 15 42 19 47 24 35 61 243 75 420 3 44 10 109 15 145 37 266 34 352 -13 385 -38 27 -89 19 -126 -19z"/> <path d="M6575 4421 c-8 -13 49 -75 84 -93 38 -18 130 -10 144 14 16 25 -7 46 -61 54 -26 4 -64 13 -86 20 -45 16 -73 18 -81 5z"/> <path d="M3073 5341 c-57 -27 -79 -70 -64 -123 17 -54 53 -74 154 -82 45 -3 104 -13 131 -21 27 -8 65 -15 85 -15 37 0 159 -30 286 -69 44 -13 82 -19 103 -16 35 7 82 50 82 77 0 19 -14 24 -105 33 -263 26 -305 37 -305 75 0 37 32 61 93 67 32 3 55 8 53 10 -8 8 -338 71 -406 77 -53 5 -73 3 -107 -13z"/> <path d="M3650 4540 c-119 -6 -324 -42 -435 -76 -27 -8 -75 -22 -105 -31 -136 -39 -180 -74 -180 -143 0 -42 15 -67 51 -86 27 -13 41 -14 96 -4 35 6 78 17 96 24 43 19 274 73 362 86 39 5 98 10 132 10 90 0 157 17 187 47 33 33 35 58 4 48 -54 -17 -255 -51 -498 -84 -217 -30 -293 -35 -318 -22 -27 14 -29 51 -4 79 17 19 33 22 352 62 36 5 117 16 180 24 63 9 153 20 200 24 l85 8 -35 22 c-19 12 -37 21 -40 20 -3 -1 -61 -4 -130 -8z"/> <path d="M10298 3474 c-16 -8 -28 -18 -28 -23 0 -4 28 -16 63 -26 204 -58 340 -113 357 -146 16 -29 -11 -52 -61 -51 -43 1 -243 61 -340 103 -53 23 -64 22 -55 -9 8 -23 75 -57 144 -71 117 -24 325 -115 444 -194 30 -20 71 -43 91 -52 33 -14 39 -13 80 4 24 11 47 27 51 36 10 28 7 74 -8 103 -19 36 -93 97 -158 129 -29 14 -64 33 -78 43 -65 43 -415 171 -464 170 -6 -1 -23 -8 -38 -16z"/> <path d="M9630 2812 c0 -17 237 -152 266 -152 14 0 15 2 3 17 -17 20 -101 81 -152 111 -44 25 -117 40 -117 24z"/> <path d="M9560 2676 c0 -20 22 -40 87 -82 71 -45 198 -168 226 -217 34 -61 100 -84 160 -56 24 11 57 66 57 94 0 17 -31 35 -60 35 -12 0 -40 13 -63 28 -54 37 -114 71 -207 118 -41 21 -95 51 -119 66 -49 31 -81 36 -81 14z"/> </g> </svg> 